<?xml version="1.0" encoding="iso-8859-1"?>
<!-- Generator: Adobe Illustrator 19.0.0, SVG Export Plug-In . SVG Version: 6.00 Build 0)  -->
<svg version="1.1" id="Capa_1" xmlns="http://www.w3.org/2000/svg" xmlns:xlink="http://www.w3.org/1999/xlink" x="0px" y="0px"
	 viewBox="0 0 512 512" style="enable-background:new 0 0 512 512;" xml:space="preserve">
<g>
	<g>
		<g>
			<path d="M32,464V48c0-8.837,7.163-16,16-16h240v64c0,17.673,14.327,32,32,32h64v48h32v-64c0.025-4.253-1.645-8.341-4.64-11.36
				l-96-96C312.341,1.645,308.253-0.024,304,0H48C21.49,0,0,21.491,0,48v416c0,26.51,21.49,48,48,48h112v-32H48
				C39.164,480,32,472.837,32,464z"/>
			<path d="M160,272v128c0,8.837,7.163,16,16,16h80v-32h-64v-32h64v-32h-64v-32h64v-32h-80C167.164,256,160,263.164,160,272z"/>
			<path d="M512,288v-32h-80c-8.837,0-16,7.163-16,16v128c0,8.837,7.163,16,16,16h80v-32h-64v-32h64v-32h-64v-32H512z"/>
			<path d="M353.76,264.8L336,300.16l-17.76-35.36c-2.711-5.38-8.215-8.782-14.24-8.8h-32v32h22.08l24,48l-24,48H272v32h32
				c6.025-0.018,11.529-3.42,14.24-8.8L336,371.84l17.76,35.36c2.711,5.38,8.215,8.782,14.24,8.8h32v-32h-22.08l-24-48l24-48H400
				v-32h-32C361.975,256.019,356.471,259.42,353.76,264.8z"/>
		</g>
	</g>
</g>
<g>
</g>
<g>
</g>
<g>
</g>
<g>
</g>
<g>
</g>
<g>
</g>
<g>
</g>
<g>
</g>
<g>
</g>
<g>
</g>
<g>
</g>
<g>
</g>
<g>
</g>
<g>
</g>
<g>
</g>
</svg>
